<svg xmlns="http://www.w3.org/2000/svg" width="201" height="200" viewBox="0 0 201 200" version="1.1"><path d="M 99.315 36.464 C 95.648 38.058, 93 42.498, 93 47.050 C 93 49.299, 93.973 51.173, 96.400 53.600 C 99.187 56.387, 100.557 57, 104 57 C 107.443 57, 108.813 56.387, 111.600 53.600 C 114.027 51.173, 115 49.299, 115 47.050 C 115 42.386, 112.324 38.033, 108.466 36.421 C 104.326 34.692, 103.379 34.696, 99.315 36.464 M 102.688 40.646 C 102.309 41.024, 102 42.158, 102 43.167 C 102 44.333, 101.273 45, 100 45 C 98.667 45, 98 45.667, 98 47 C 98 48.333, 98.667 49, 100 49 C 101.333 49, 102 49.667, 102 51 C 102 52.333, 102.667 53, 104 53 C 105.309 53, 106 52.333, 106 51.070 C 106 49.829, 106.804 49.025, 108.250 48.820 C 111.139 48.409, 111.186 45.598, 108.311 45.189 C 106.982 44.999, 106.001 44.049, 105.811 42.767 C 105.486 40.564, 103.868 39.465, 102.688 40.646 M 154.388 86.980 C 145.030 90.761, 146.619 105.712, 156.577 107.580 C 163.087 108.802, 169.986 103.465, 169.996 97.200 C 170.009 89.563, 161.609 84.063, 154.388 86.980 M 155 96.500 C 155 97.583, 156.111 98, 159 98 C 161.889 98, 163 97.583, 163 96.500 C 163 95.417, 161.889 95, 159 95 C 156.111 95, 155 95.417, 155 96.500 M 102 136.662 C 91.954 139.905, 89.850 150.332, 97.954 156.718 C 100.286 158.556, 108.133 158.252, 110.633 156.228 C 115.036 152.661, 116.184 147.191, 113.585 142.165 C 111.658 138.439, 105.524 135.525, 102 136.662 M 102.688 140.646 C 102.309 141.024, 102 142.158, 102 143.167 C 102 144.333, 101.273 145, 100 145 C 98.667 145, 98 145.667, 98 147 C 98 148.333, 98.667 149, 100 149 C 101.333 149, 102 149.667, 102 151 C 102 152.333, 102.667 153, 104 153 C 105.309 153, 106 152.333, 106 151.070 C 106 149.829, 106.804 149.025, 108.250 148.820 C 111.139 148.409, 111.186 145.598, 108.311 145.189 C 106.982 144.999, 106.001 144.049, 105.811 142.767 C 105.486 140.564, 103.868 139.465, 102.688 140.646" stroke="none" fill="#fffc79" fill-rule="evenodd"/><path d="M 143.222 29.431 C 133.604 32.521, 127.857 40.336, 127.857 50.324 C 127.857 59.460, 132.333 66.557, 140.554 70.458 C 146.419 73.242, 156.703 72.291, 162.152 68.461 C 171.447 61.928, 174.253 48.796, 168.383 39.301 C 163.034 30.650, 152.406 26.481, 143.222 29.431 M 102.374 41.467 C 102.065 42.274, 102.043 43.511, 102.327 44.217 C 102.610 44.923, 102.878 44.525, 102.921 43.333 C 102.964 42.142, 103.563 40.940, 104.250 40.662 C 105.229 40.267, 105.222 40.141, 104.219 40.079 C 103.514 40.036, 102.684 40.660, 102.374 41.467 M 146.284 40.775 C 145.065 40.970, 142.928 42.485, 141.534 44.142 C 137.676 48.727, 138.338 56.205, 142.913 59.718 C 145.151 61.436, 152.141 61.290, 154.739 59.471 C 158.992 56.491, 159.513 46.330, 155.580 43.066 C 153.698 41.504, 148.985 40.343, 146.284 40.775 M 145.200 46.200 C 144.540 46.860, 144 49.020, 144 51 C 144 52.980, 144.540 55.140, 145.200 55.800 C 146.626 57.226, 149.914 57.340, 151.977 56.035 C 153.959 54.782, 153.959 47.218, 151.977 45.965 C 149.914 44.660, 146.626 44.774, 145.200 46.200 M 110 46.833 C 110 47.475, 108.987 48.052, 107.750 48.116 C 105.898 48.211, 105.828 48.317, 107.356 48.710 C 109.351 49.223, 111.811 47.478, 110.683 46.350 C 110.308 45.974, 110 46.192, 110 46.833 M 99.689 48.648 C 100.892 48.909, 102.077 50.002, 102.322 51.077 C 102.667 52.596, 102.736 52.526, 102.633 50.765 C 102.535 49.100, 101.838 48.457, 100 48.336 C 97.918 48.200, 97.866 48.252, 99.689 48.648 M 143.222 122.431 C 133.604 125.521, 127.857 133.336, 127.857 143.324 C 127.857 149.958, 129.678 154.524, 134.077 158.923 C 138.518 163.365, 142.710 165, 149.652 165 C 160.426 165, 168.447 158.644, 170.976 148.102 C 174.779 132.247, 158.767 117.437, 143.222 122.431 M 141 144 C 141 153.230, 141.149 154, 142.940 154 C 144.459 154, 144.946 153.188, 145.190 150.250 C 145.433 147.310, 145.959 146.435, 147.625 146.197 C 150.352 145.808, 153 148.456, 153 151.571 C 153 153.479, 153.523 154, 155.437 154 C 157.689 154, 157.831 153.715, 157.298 150.250 C 156.982 148.188, 156.313 145.978, 155.813 145.339 C 155.253 144.625, 155.307 143.928, 155.951 143.530 C 156.528 143.174, 157 141.349, 157 139.476 C 157 135.120, 154.969 134, 147.066 134 L 141 134 141 144 M 145.180 140.250 C 145.545 142.815, 149.271 143.850, 151.496 142.004 C 153.779 140.108, 152.109 138, 148.323 138 C 145.305 138, 144.902 138.288, 145.180 140.250 M 102.374 141.467 C 102.065 142.274, 102.043 143.511, 102.327 144.217 C 102.610 144.923, 102.878 144.525, 102.921 143.333 C 102.964 142.142, 103.563 140.940, 104.250 140.662 C 105.229 140.267, 105.222 140.141, 104.219 140.079 C 103.514 140.036, 102.684 140.660, 102.374 141.467 M 110 146.833 C 110 147.475, 108.987 148.052, 107.750 148.116 C 105.898 148.211, 105.828 148.317, 107.356 148.710 C 109.351 149.223, 111.811 147.478, 110.683 146.350 C 110.308 145.974, 110 146.192, 110 146.833 M 99.689 148.648 C 100.892 148.909, 102.077 150.002, 102.322 151.077 C 102.667 152.596, 102.736 152.526, 102.633 150.765 C 102.535 149.100, 101.838 148.457, 100 148.336 C 97.918 148.200, 97.866 148.252, 99.689 148.648" stroke="none" fill="#93d9af" fill-rule="evenodd"/><path d="M 53.750 13.662 C 54.438 13.940, 55.563 13.940, 56.250 13.662 C 56.938 13.385, 56.375 13.158, 55 13.158 C 53.625 13.158, 53.063 13.385, 53.750 13.662 M 60.813 13.683 C 61.534 13.972, 62.397 13.936, 62.729 13.604 C 63.061 13.272, 62.471 13.036, 61.417 13.079 C 60.252 13.127, 60.015 13.364, 60.813 13.683 M 53.500 18.935 C 45.959 20.771, 41.299 24.808, 37.929 32.427 C 32.698 44.252, 39.845 58.178, 52.879 61.559 C 66.623 65.124, 80 54.737, 80 40.500 C 80 31.074, 73.417 22.092, 64.586 19.470 C 59.233 17.880, 58.065 17.824, 53.500 18.935 M 74 18.378 C 74 18.585, 74.787 19.373, 75.750 20.128 C 77.336 21.371, 77.371 21.336, 76.128 19.750 C 74.821 18.084, 74 17.555, 74 18.378 M 144.813 23.683 C 145.534 23.972, 146.397 23.936, 146.729 23.604 C 147.061 23.272, 146.471 23.036, 145.417 23.079 C 144.252 23.127, 144.015 23.364, 144.813 23.683 M 152.813 23.683 C 153.534 23.972, 154.397 23.936, 154.729 23.604 C 155.061 23.272, 154.471 23.036, 153.417 23.079 C 152.252 23.127, 152.015 23.364, 152.813 23.683 M 45 31.596 C 45 31.924, 45.651 34.511, 46.446 37.346 C 47.241 40.181, 48.384 44.413, 48.984 46.750 C 49.887 50.260, 50.493 51, 52.467 51 C 54.548 51, 55.016 50.289, 56.087 45.500 C 56.764 42.475, 57.625 40, 58 40 C 58.375 40, 59.236 42.475, 59.913 45.500 C 60.984 50.289, 61.452 51, 63.533 51 C 65.507 51, 66.113 50.260, 67.016 46.750 C 67.616 44.413, 68.759 40.181, 69.554 37.346 C 71.392 30.796, 71.420 31, 68.674 31 C 66.644 31, 66.160 31.797, 64.873 37.250 L 63.399 43.500 61.904 37.500 C 60.593 32.241, 60.111 31.500, 58 31.500 C 55.889 31.500, 55.407 32.241, 54.096 37.500 L 52.601 43.500 51.127 37.250 C 49.840 31.797, 49.356 31, 47.326 31 C 46.047 31, 45 31.268, 45 31.596 M 31.079 35.583 C 31.127 36.748, 31.364 36.985, 31.683 36.188 C 31.972 35.466, 31.936 34.603, 31.604 34.271 C 31.272 33.939, 31.036 34.529, 31.079 35.583 M 85.195 40.500 C 85.215 42.150, 85.439 42.704, 85.693 41.731 C 85.947 40.758, 85.930 39.408, 85.656 38.731 C 85.382 38.054, 85.175 38.850, 85.195 40.500 M 105.336 43 C 105.457 44.838, 106.100 45.535, 107.765 45.633 C 109.526 45.736, 109.596 45.667, 108.077 45.322 C 107.002 45.077, 105.909 43.892, 105.648 42.689 C 105.252 40.866, 105.200 40.918, 105.336 43 M 31.079 45.583 C 31.127 46.748, 31.364 46.985, 31.683 46.188 C 31.972 45.466, 31.936 44.603, 31.604 44.271 C 31.272 43.939, 31.036 44.529, 31.079 45.583 M 117.158 46 C 117.158 47.375, 117.385 47.938, 117.662 47.250 C 117.940 46.563, 117.940 45.438, 117.662 44.750 C 117.385 44.063, 117.158 44.625, 117.158 46 M 90.079 46.583 C 90.127 47.748, 90.364 47.985, 90.683 47.188 C 90.972 46.466, 90.936 45.603, 90.604 45.271 C 90.272 44.939, 90.036 45.529, 90.079 46.583 M 98.750 45.662 C 99.438 45.940, 100.563 45.940, 101.250 45.662 C 101.938 45.385, 101.375 45.158, 100 45.158 C 98.625 45.158, 98.063 45.385, 98.750 45.662 M 176.158 47 C 176.158 48.375, 176.385 48.938, 176.662 48.250 C 176.940 47.563, 176.940 46.438, 176.662 45.750 C 176.385 45.063, 176.158 45.625, 176.158 47 M 122.286 50.500 C 122.294 53.250, 122.488 54.256, 122.718 52.736 C 122.947 51.216, 122.941 48.966, 122.704 47.736 C 122.467 46.506, 122.279 47.750, 122.286 50.500 M 105.158 51 C 105.158 52.375, 105.385 52.938, 105.662 52.250 C 105.940 51.563, 105.940 50.438, 105.662 49.750 C 105.385 49.063, 105.158 49.625, 105.158 51 M 176.158 54 C 176.158 55.375, 176.385 55.938, 176.662 55.250 C 176.940 54.563, 176.940 53.438, 176.662 52.750 C 176.385 52.063, 176.158 52.625, 176.158 54 M 76.924 59.750 L 74.500 62.500 77.250 60.076 C 79.820 57.810, 80.459 57, 79.674 57 C 79.495 57, 78.258 58.237, 76.924 59.750 M 102.750 57.662 C 103.438 57.940, 104.563 57.940, 105.250 57.662 C 105.938 57.385, 105.375 57.158, 104 57.158 C 102.625 57.158, 102.063 57.385, 102.750 57.662 M 105.813 59.683 C 106.534 59.972, 107.397 59.936, 107.729 59.604 C 108.061 59.272, 107.471 59.036, 106.417 59.079 C 105.252 59.127, 105.015 59.364, 105.813 59.683 M 56.264 67.718 C 57.784 67.947, 60.034 67.941, 61.264 67.704 C 62.494 67.467, 61.250 67.279, 58.500 67.286 C 55.750 67.294, 54.744 67.488, 56.264 67.718 M 147.264 77.718 C 148.784 77.947, 151.034 77.941, 152.264 77.704 C 153.494 77.467, 152.250 77.279, 149.500 77.286 C 146.750 77.294, 145.744 77.488, 147.264 77.718 M 157.750 83.662 C 158.438 83.940, 159.563 83.940, 160.250 83.662 C 160.938 83.385, 160.375 83.158, 159 83.158 C 157.625 83.158, 157.063 83.385, 157.750 83.662 M 148.872 87.750 C 147.629 89.336, 147.664 89.371, 149.250 88.128 C 150.213 87.373, 151 86.585, 151 86.378 C 151 85.555, 150.179 86.084, 148.872 87.750 M 145.232 97 C 145.232 98.925, 145.438 99.713, 145.689 98.750 C 145.941 97.787, 145.941 96.213, 145.689 95.250 C 145.438 94.287, 145.232 95.075, 145.232 97 M 162.079 96.583 C 162.127 97.748, 162.364 97.985, 162.683 97.188 C 162.972 96.466, 162.936 95.603, 162.604 95.271 C 162.272 94.939, 162.036 95.529, 162.079 96.583 M 148 105.378 C 148 105.585, 148.787 106.373, 149.750 107.128 C 151.336 108.371, 151.371 108.336, 150.128 106.750 C 148.821 105.084, 148 104.555, 148 105.378 M 157.750 110.662 C 158.438 110.940, 159.563 110.940, 160.250 110.662 C 160.938 110.385, 160.375 110.158, 159 110.158 C 157.625 110.158, 157.063 110.385, 157.750 110.662 M 144.813 116.683 C 145.534 116.972, 146.397 116.936, 146.729 116.604 C 147.061 116.272, 146.471 116.036, 145.417 116.079 C 144.252 116.127, 144.015 116.364, 144.813 116.683 M 152.813 116.683 C 153.534 116.972, 154.397 116.936, 154.729 116.604 C 155.061 116.272, 154.471 116.036, 153.417 116.079 C 152.252 116.127, 152.015 116.364, 152.813 116.683 M 61.813 128.683 C 62.534 128.972, 63.397 128.936, 63.729 128.604 C 64.061 128.272, 63.471 128.036, 62.417 128.079 C 61.252 128.127, 61.015 128.364, 61.813 128.683 M 51.759 134.423 C 46.583 136.270, 43.554 138.402, 40.664 142.229 C 33.185 152.136, 35.499 166.187, 45.802 173.428 C 51.537 177.459, 61.597 178.275, 67.587 175.195 C 85.511 165.979, 83.596 140.134, 64.568 134.468 C 58.608 132.694, 56.624 132.687, 51.759 134.423 M 38.405 136.250 L 36.500 138.500 38.750 136.595 C 40.864 134.805, 41.455 134, 40.655 134 C 40.465 134, 39.453 135.012, 38.405 136.250 M 176.158 140 C 176.158 141.375, 176.385 141.938, 176.662 141.250 C 176.940 140.563, 176.940 139.438, 176.662 138.750 C 176.385 138.063, 176.158 138.625, 176.158 140 M 122.286 143.500 C 122.294 146.250, 122.488 147.256, 122.718 145.736 C 122.947 144.216, 122.941 141.966, 122.704 140.736 C 122.467 139.506, 122.279 140.750, 122.286 143.500 M 105.336 143 C 105.457 144.838, 106.100 145.535, 107.765 145.633 C 109.526 145.736, 109.596 145.667, 108.077 145.322 C 107.002 145.077, 105.909 143.892, 105.648 142.689 C 105.252 140.866, 105.200 140.918, 105.336 143 M 98.750 145.662 C 99.438 145.940, 100.563 145.940, 101.250 145.662 C 101.938 145.385, 101.375 145.158, 100 145.158 C 98.625 145.158, 98.063 145.385, 98.750 145.662 M 117.158 147 C 117.158 148.375, 117.385 148.938, 117.662 148.250 C 117.940 147.563, 117.940 146.438, 117.662 145.750 C 117.385 145.063, 117.158 145.625, 117.158 147 M 176.158 147 C 176.158 148.375, 176.385 148.938, 176.662 148.250 C 176.940 147.563, 176.940 146.438, 176.662 145.750 C 176.385 145.063, 176.158 145.625, 176.158 147 M 50 156.116 L 50 166.233 56.634 165.811 C 64.906 165.284, 67 163.271, 67 155.844 C 67 148.584, 64.125 146, 56.045 146 L 50 146 50 156.116 M 90.079 147.583 C 90.127 148.748, 90.364 148.985, 90.683 148.188 C 90.972 147.466, 90.936 146.603, 90.604 146.271 C 90.272 145.939, 90.036 146.529, 90.079 147.583 M 105.158 151 C 105.158 152.375, 105.385 152.938, 105.662 152.250 C 105.940 151.563, 105.940 150.438, 105.662 149.750 C 105.385 149.063, 105.158 149.625, 105.158 151 M 54 156 L 54 162.127 57.219 161.813 C 59.508 161.591, 60.880 160.706, 61.969 158.750 C 63.344 156.281, 63.344 155.719, 61.969 153.250 C 60.880 151.294, 59.508 150.409, 57.219 150.187 L 54 149.873 54 156 M 85.195 155.500 C 85.215 157.150, 85.439 157.704, 85.693 156.731 C 85.947 155.758, 85.930 154.408, 85.656 153.731 C 85.382 153.054, 85.175 153.850, 85.195 155.500 M 147.264 170.718 C 148.784 170.947, 151.034 170.941, 152.264 170.704 C 153.494 170.467, 152.250 170.279, 149.500 170.286 C 146.750 170.294, 145.744 170.488, 147.264 170.718 M 76.924 174.750 L 74.500 177.500 77.250 175.076 C 79.820 172.810, 80.459 172, 79.674 172 C 79.495 172, 78.258 173.238, 76.924 174.750 M 55.750 182.706 C 56.987 182.944, 59.013 182.944, 60.250 182.706 C 61.487 182.467, 60.475 182.272, 58 182.272 C 55.525 182.272, 54.513 182.467, 55.750 182.706" stroke="none" fill="#d0a2d9" fill-rule="evenodd"/><path d="M 6 99 L 6 194 101 194 L 196 194 196 99 L 196 4 101 4 L 6 4 6 99 M 9 99 L 9 191 101 191 L 193 191 193 99 L 193 7 101 7 L 9 7 9 99 M 53.344 14.057 C 44.454 15.783, 36.929 21.704, 33.353 29.787 C 32.361 32.031, 31.694 36.269, 31.668 40.500 C 31.599 51.771, 37.156 60.417, 47.500 65.133 C 52.139 67.247, 61.362 67.571, 67.193 65.824 C 72.651 64.189, 79.841 57.537, 82.634 51.538 C 91.662 32.151, 74.338 9.982, 53.344 14.057 M 53.500 18.935 C 45.959 20.771, 41.299 24.808, 37.929 32.427 C 32.698 44.252, 39.845 58.178, 52.879 61.559 C 66.623 65.124, 80 54.737, 80 40.500 C 80 31.074, 73.417 22.092, 64.586 19.470 C 59.233 17.880, 58.065 17.824, 53.500 18.935 M 142.672 24.395 C 136.022 26.235, 130.113 30.646, 126.524 36.452 C 123.975 40.575, 123.444 42.567, 123.146 49.140 C 122.850 55.648, 123.162 57.704, 125.037 61.577 C 129.658 71.123, 137.283 76.147, 148.159 76.809 C 156.114 77.294, 160.331 76.055, 166.344 71.464 C 181.524 59.872, 178.938 34.869, 161.704 26.607 C 155.080 23.432, 148.793 22.701, 142.672 24.395 M 144.123 28.965 C 134.818 31.264, 127.857 40.367, 127.857 50.237 C 127.857 57.132, 129.734 61.674, 134.492 66.295 C 139.252 70.918, 143.598 72.322, 151.578 71.814 C 156.630 71.492, 158.837 70.791, 162.175 68.445 C 171.447 61.928, 174.246 48.785, 168.383 39.301 C 163.347 31.156, 153.035 26.762, 144.123 28.965 M 45 31.596 C 45 31.924, 45.651 34.511, 46.446 37.346 C 47.241 40.181, 48.384 44.413, 48.984 46.750 C 49.887 50.260, 50.493 51, 52.467 51 C 54.548 51, 55.016 50.289, 56.087 45.500 C 56.764 42.475, 57.625 40, 58 40 C 58.375 40, 59.236 42.475, 59.913 45.500 C 60.984 50.289, 61.452 51, 63.533 51 C 65.507 51, 66.113 50.260, 67.016 46.750 C 67.616 44.413, 68.759 40.181, 69.554 37.346 C 71.392 30.796, 71.420 31, 68.674 31 C 66.644 31, 66.160 31.797, 64.873 37.250 L 63.399 43.500 61.904 37.500 C 60.593 32.241, 60.111 31.500, 58 31.500 C 55.889 31.500, 55.407 32.241, 54.096 37.500 L 52.601 43.500 51.127 37.250 C 49.840 31.797, 49.356 31, 47.326 31 C 46.047 31, 45 31.268, 45 31.596 M 98.121 34.710 C 89.084 39.162, 88.557 52.353, 97.211 57.466 C 103.193 60.999, 111.507 59.151, 114.991 53.514 C 119.107 46.854, 116.363 37.303, 109.510 34.440 C 105.071 32.585, 102.301 32.651, 98.121 34.710 M 99.388 35.929 C 93.315 38.530, 90.911 48.075, 95.016 53.293 C 97.871 56.922, 103.057 58.466, 107.484 57.005 C 118.642 53.323, 117.111 36.687, 105.500 35.450 C 103.300 35.216, 100.550 35.431, 99.388 35.929 M 146.284 40.775 C 142.718 41.346, 139 46.565, 139 51 C 139 56.826, 142.909 61, 148.366 61 C 153.626 61, 156.651 58.924, 157.881 54.471 C 158.954 50.583, 157.811 44.918, 155.580 43.066 C 153.698 41.504, 148.985 40.343, 146.284 40.775 M 102.820 43.250 C 102.614 44.696, 101.696 45.614, 100.250 45.820 C 97.189 46.254, 97.389 48, 100.500 48 C 102.500 48, 103 48.500, 103 50.500 C 103 53.611, 104.746 53.811, 105.180 50.750 C 105.386 49.304, 106.304 48.386, 107.750 48.180 C 108.987 48.005, 110 47.473, 110 47 C 110 46.527, 108.987 45.995, 107.750 45.820 C 106.304 45.614, 105.386 44.696, 105.180 43.250 C 105.005 42.013, 104.473 41, 104 41 C 103.527 41, 102.995 42.013, 102.820 43.250 M 145.245 46.155 C 143.656 47.744, 143.626 54.226, 145.200 55.800 C 145.860 56.460, 147.670 57, 149.221 57 C 152.906 57, 154.700 53.441, 153.369 48.771 C 152.618 46.134, 151.861 45.443, 149.464 45.205 C 147.828 45.043, 145.930 45.470, 145.245 46.155 M 153.418 84.969 C 152.274 85.432, 150.136 87.238, 148.668 88.982 C 146.566 91.481, 146 93.200, 146 97.091 C 146 101.279, 146.499 102.574, 149.284 105.613 C 157.289 114.347, 171.993 108.770, 171.993 97 C 171.993 87.888, 162.077 81.466, 153.418 84.969 M 151.203 88.951 C 148.055 92.099, 146.976 95.424, 147.765 99.549 C 148.033 100.951, 149.580 103.426, 151.203 105.049 C 153.601 107.447, 155.001 108, 158.677 108 C 162.487 108, 163.736 107.464, 166.600 104.600 C 169.387 101.813, 170 100.443, 170 97 C 170 93.557, 169.387 92.187, 166.600 89.400 C 163.736 86.536, 162.487 86, 158.677 86 C 155.001 86, 153.601 86.553, 151.203 88.951 M 155 96.500 C 155 97.548, 156.056 98, 158.500 98 C 160.944 98, 162 97.548, 162 96.500 C 162 95.452, 160.944 95, 158.500 95 C 156.056 95, 155 95.452, 155 96.500 M 142.672 117.395 C 131.461 120.497, 123.881 129.513, 123.175 140.585 C 122.952 144.091, 123.055 148.478, 123.403 150.336 C 124.381 155.550, 129.564 162.512, 135.123 166.079 C 139.299 168.759, 141.403 169.390, 147.443 169.778 C 156.059 170.331, 160.176 169.173, 166.344 164.464 C 181.524 152.872, 178.938 127.869, 161.704 119.607 C 155.080 116.432, 148.793 115.701, 142.672 117.395 M 143.222 122.431 C 133.604 125.521, 127.857 133.336, 127.857 143.324 C 127.857 149.958, 129.678 154.524, 134.077 158.923 C 138.476 163.322, 143.042 165.143, 149.676 165.143 C 159.904 165.143, 167.593 159.325, 170.609 149.303 C 175.496 133.065, 159.371 117.243, 143.222 122.431 M 52.500 128.883 C 38.830 132.406, 29.781 145.090, 31.444 158.399 C 32.227 164.669, 36.753 172.947, 41.288 176.406 C 52.313 184.815, 68.391 183.696, 77.693 173.872 C 90.462 160.388, 85.725 137.633, 68.667 130.506 C 64.359 128.705, 56.320 127.898, 52.500 128.883 M 51.759 134.423 C 46.583 136.270, 43.554 138.402, 40.664 142.229 C 33.185 152.136, 35.499 166.187, 45.802 173.428 C 51.537 177.459, 61.597 178.275, 67.587 175.195 C 85.511 165.979, 83.596 140.134, 64.568 134.468 C 58.608 132.694, 56.624 132.687, 51.759 134.423 M 100.542 134.729 C 94.835 136.179, 91 141.345, 91 147.582 C 91 152.987, 94.249 157.548, 99.540 159.568 C 103.756 161.178, 104.251 161.176, 108.585 159.521 C 123.967 153.646, 116.514 130.672, 100.542 134.729 M 141 144 C 141 153.230, 141.149 154, 142.940 154 C 144.459 154, 144.946 153.188, 145.190 150.250 C 145.447 147.140, 145.917 146.441, 147.944 146.155 C 150.763 145.757, 153 148.206, 153 151.691 C 153 153.471, 153.558 154, 155.437 154 C 157.689 154, 157.831 153.715, 157.298 150.250 C 156.982 148.188, 156.313 145.978, 155.813 145.339 C 155.253 144.625, 155.307 143.928, 155.951 143.530 C 156.528 143.174, 157 141.349, 157 139.476 C 157 135.120, 154.969 134, 147.066 134 L 141 134 141 144 M 98.314 137.894 C 94.258 140.439, 93 142.833, 93 148.011 C 93 154.840, 99.965 160.230, 106.628 158.557 C 108.074 158.194, 110.549 156.605, 112.128 155.026 C 114.451 152.703, 115 151.282, 115 147.593 C 115 138.565, 105.783 133.208, 98.314 137.894 M 145 140.500 C 145 142.571, 145.480 143, 147.800 143 C 149.340 143, 151.105 142.495, 151.722 141.878 C 153.652 139.948, 151.979 138, 148.393 138 C 145.440 138, 145 138.325, 145 140.500 M 102.820 143.250 C 102.614 144.696, 101.696 145.614, 100.250 145.820 C 97.189 146.254, 97.389 148, 100.500 148 C 102.500 148, 103 148.500, 103 150.500 C 103 153.611, 104.746 153.811, 105.180 150.750 C 105.386 149.304, 106.304 148.386, 107.750 148.180 C 108.987 148.005, 110 147.473, 110 147 C 110 146.527, 108.987 145.995, 107.750 145.820 C 106.304 145.614, 105.386 144.696, 105.180 143.250 C 105.005 142.012, 104.473 141, 104 141 C 103.527 141, 102.995 142.012, 102.820 143.250 M 50 156.116 L 50 166.233 56.634 165.811 C 64.906 165.284, 67 163.271, 67 155.844 C 67 148.584, 64.125 146, 56.045 146 L 50 146 50 156.116 M 54 156 L 54 162.127 57.219 161.813 C 59.508 161.591, 60.880 160.706, 61.969 158.750 C 63.344 156.281, 63.344 155.719, 61.969 153.250 C 60.880 151.294, 59.508 150.409, 57.219 150.187 L 54 149.873 54 156" stroke="none" fill="#0e0f0e" fill-rule="evenodd"/><path d="M 0 100.005 L 0 200.010 100.750 199.755 L 201.500 199.500 201.755 99.750 L 202.010 0 101.005 0 L 0 0 0 100.005 M 0.481 100.500 C 0.481 155.500, 0.602 178.147, 0.750 150.826 C 0.898 123.506, 0.898 78.506, 0.750 50.826 C 0.602 23.147, 0.481 45.500, 0.481 100.500 M 6 99 L 6 194 101 194 L 196 194 196 99 L 196 4 101 4 L 6 4 6 99 M 9 99 L 9 191 101 191 L 193 191 193 99 L 193 7 101 7 L 9 7 9 99 M 50.994 13.934 C 34.948 18.815, 26.494 36.824, 33.358 51.500 C 43.257 72.663, 72.444 73.143, 82.636 52.311 C 91.520 34.154, 77.782 12.659, 57.568 13.086 C 55.331 13.133, 52.372 13.515, 50.994 13.934 M 140.027 24.737 C 133.422 27.068, 125.576 35.321, 123.583 42.034 C 121.573 48.800, 121.588 52.495, 123.651 58.881 C 128.145 72.797, 143.242 80.688, 157.464 76.553 C 164.939 74.380, 172.834 66.870, 175.324 59.563 C 182.737 37.806, 161.729 17.077, 140.027 24.737 M 98.500 33.900 C 89.857 37.709, 87.912 50.383, 95.048 56.387 C 100.575 61.037, 107.407 61.053, 112.904 56.427 C 121.890 48.866, 117.059 34.222, 105.297 33.367 C 102.659 33.175, 99.600 33.415, 98.500 33.900 M 155.208 83.711 C 153.948 83.953, 151.402 85.665, 149.551 87.516 C 143.712 93.355, 143.691 100.624, 149.496 106.430 C 153.960 110.893, 158.803 111.758, 164.337 109.079 C 169.451 106.603, 172 102.585, 172 97 C 172 91.452, 169.457 87.399, 164.456 84.979 C 160.374 83.003, 159.520 82.886, 155.208 83.711 M 140.027 117.737 C 137.324 118.691, 133.499 121.371, 130.360 124.510 C 119.244 135.625, 119.288 151.357, 130.466 162.534 C 141.635 173.703, 157.375 173.755, 168.472 162.659 C 171.889 159.241, 174.217 155.812, 175.324 152.563 C 182.737 130.806, 161.729 110.077, 140.027 117.737 M 50.365 129.089 C 43.723 131.014, 37.708 136.180, 34.170 143 C 31.067 148.979, 30.832 150.061, 31.240 156.500 C 31.788 165.146, 34.295 170.329, 40.621 175.898 C 58.038 191.229, 85.377 178.758, 85.337 155.500 C 85.306 137.195, 67.859 124.019, 50.365 129.089 M 97.304 135.956 C 92.814 138.694, 90.667 142.428, 90.667 147.500 C 90.667 152.572, 92.814 156.306, 97.304 159.044 C 108.229 165.705, 122.063 153.296, 116.284 142.020 C 112.546 134.726, 103.868 131.954, 97.304 135.956" stroke="none" fill="#f0f1ee" fill-rule="evenodd"/></svg>